<svg height="512" viewBox="0 0 58 58" width="512" xmlns="http://www.w3.org/2000/svg"><g id="Page-1" fill="none" fill-rule="evenodd"><g id="012---Edit-Calendar" fill-rule="nonzero"><path id="Shape" d="m48 10v17l-19 19h-27c-1.10320187-.0032948-1.9967052-.8967981-2-2v-34z" fill="#ecf0f1"/><g fill="#95a5a5"><rect id="Rectangle-path" height="5" rx="1" width="7" x="4" y="18"/><rect id="Rectangle-path" height="5" rx="1" width="7" x="15" y="18"/><rect id="Rectangle-path" height="5" rx="1" width="7" x="26" y="18"/><rect id="Rectangle-path" height="5" rx="1" width="7" x="26" y="27"/><rect id="Rectangle-path" height="5" rx="1" width="7" x="37" y="18"/><path id="Shape" d="m31.53 41h-4.53c-.5522847 0-1-.4477153-1-1v-3c0-.5522847.4477153-1 1-1h5c.5522847 0 1 .4477153 1 1v2.53z"/><path id="Shape" d="m40.53 32h-2.53c-.5522847 0-1-.4477153-1-1v-3c0-.5522847.4477153-1 1-1h5c.5522847 0 1 .4477153 1 1v.53z"/><rect id="Rectangle-path" height="5" rx="1" width="7" x="4" y="27"/><rect id="Rectangle-path" height="5" rx="1" width="7" x="15" y="27"/><rect id="Rectangle-path" height="5" rx="1" width="7" x="4" y="36"/><rect id="Rectangle-path" height="5" rx="1" width="7" x="15" y="36"/></g><path id="Shape" d="m47.666 24.861 2.242-2.242c.8254942-.8251368 2.1635058-.8251368 2.989 0l4.484 4.481c.8251368.8254942.8251368 2.1635058 0 2.989l-2.242 2.242-6.139-1.331z" fill="#ff5364"/><path id="Shape" d="m25.245 47.281-3.2 9.572c-.1038539.3124553-.0224165.6567687.2104074.8895926s.5771373.3142613.8895926.2104074l9.572-3.2-1.717-5.753z" fill="#fdd7ad"/><path id="Shape" d="m28.23 56.25-5.08 1.7c-.312624.1055162-.6580396.0246602-.8913499-.2086501s-.3141663-.5787259-.2086501-.8913499l1.7-5.08z" fill="#3f5c6c"/><path id="Rectangle-path" d="m26.207 39.035h31.707v5.289h-31.707z" fill="#3b97d3" transform="matrix(.707 -.707 .707 .707 -17.153 41.949)"/><path id="Shape" d="m51.4 28.6-22.42 22.42-3.73-3.74 22.41-22.41z" fill="#2980ba"/><path id="Shape" d="m48 5v7h-48v-7c.0032948-1.10320187.89679813-1.9967052 2-2h44c1.1032019.0032948 1.9967052.89679813 2 2z" fill="#e64c3c"/><rect id="Rectangle-path" fill="#95a5a5" height="8" rx="2" width="4" x="4"/><rect id="Rectangle-path" fill="#95a5a5" height="8" rx="2" width="4" x="40"/></g></g></svg>